# xmcd
#
# Track frame offsets:
#	150
#	9825
#	25975
#	37500
#	48300
#	61425
#	74700
#	85125
#	93475
#	105525
#	125100
#	135825
#	147175
#	158475
#	167800
#	179700
#	197475
#	212575
#	224550
#	239475
#
# Disc length: 3328
#
# Revision: 2
# Processed by: cddbd v1.5.1PL0 Copyright (c) Steve Scherf et al.
# Submitted via: audiograbber 1.80.04
# Normalized: r1:DSETVAR1,TDELIM( - )
#
DISCID=170cfe14
DTITLE=Various Artist - Starline Country and Western
DYEAR=1989
DGENRE=Country
TTITLE0=Dave Dudley - Truck Drivin Son Of A Gun
TTITLE1=T. B. Jones - A Boy Named Sue
TTITLE2=Thomas Frazy - Paper Roses
TTITLE3=Ferlin Husky - Wings Of A Dove
TTITLE4=Wanda Jackson - I Fall To Pieces
TTITLE5=Thomas Frazy - Tennessee Waltz
TTITLE6=Country All Stars - Yellow Roses Of Texas
TTITLE7=Thomas Frazy - San Quentin
TTITLE8=Gerald E. Nelson the III - East Virginia
TTITLE9=Thomas Frazy - Sunday Morning Coming Down
TTITLE10=Johnny Russel - King Of The Road
TTITLE11=Country All Stars - Oh Susanna
TTITLE12=Dave Dudley - Rodeo Drifter
TTITLE13=Jimmy Dean - The First Thing Every Morning
TTITLE14=Del Reeves - Girl On The Billboard
TTITLE15=Country All Stars - Banks Of Ohio
TTITLE16=Jimmy Horn - Mystery Maiden
TTITLE17=Dave Dudley - Mad
TTITLE18=Thorpe Glenn - Rhinstone Cowboy
TTITLE19=Johnny Russel - Jambalaya
EXTD=YEAR: 1989
EXTT0=
EXTT1=
EXTT2=
EXTT3=
EXTT4=
EXTT5=
EXTT6=
EXTT7=
EXTT8=
EXTT9=
EXTT10=
EXTT11=
EXTT12=
EXTT13=
EXTT14=
EXTT15=
EXTT16=
EXTT17=
EXTT18=
EXTT19=
PLAYORDER=
